<svg width="132" height="125" viewBox="0 0 132 125" fill="none" xmlns="http://www.w3.org/2000/svg">
<path d="M129.271 19.5579C128.516 15.7898 127.045 12.3547 125.004 9.59413C122.963 6.83356 120.424 4.84367 117.638 3.8223C107.313 -2.17669e-06 65.9961 0 65.9961 0C65.9961 0 24.6847 -3.38597e-06 14.3538 3.67623C11.5716 4.75234 9.04083 6.77842 7.00467 9.55973C4.96852 12.341 3.49548 15.7841 2.72714 19.5579C0.851344 33.7307 -0.0603661 48.1062 0.00344259 62.5041C-0.06358 76.8994 0.848157 91.2726 2.72714 105.442C3.48274 109.21 4.95397 112.645 6.99468 115.405C9.03538 118.165 11.5745 120.156 14.3598 121.178C24.7987 125 66.0021 125 66.0021 125C66.0021 125 107.313 125 117.644 121.324C120.43 120.302 122.969 118.313 125.01 115.552C127.051 112.791 128.522 109.356 129.277 105.588C131.148 91.4175 132.056 77.0448 131.989 62.6501C132.114 48.201 131.204 33.7695 129.271 19.5579V19.5579ZM52.8455 89.2683V35.7073L87.1977 62.4878L52.8455 89.2683Z" fill="url(#paint0_linear)"/>
<defs>
<linearGradient id="paint0_linear" x1="66" y1="0" x2="66" y2="125" gradientUnits="userSpaceOnUse">
<stop stop-color="#C35BD1"/>
<stop offset="1" stop-color="#657DDF"/>
</linearGradient>
</defs>
</svg>
