<svg width="16" height="23" viewBox="0 0 16 23" fill="none" xmlns="http://www.w3.org/2000/svg">
<path d="M1.18698 9.17794L12.2754 0.416204C12.6043 0.156668 12.9823 0.0132408 13.37 0.000873566C13.7578 -0.0114937 14.141 0.107653 14.4799 0.345892C14.8187 0.584131 15.1008 0.932751 15.2967 1.35542C15.4925 1.77808 15.595 2.25935 15.5934 2.74903L15.5934 20.2724C15.5919 20.7603 15.4872 21.2387 15.29 21.6583C15.0929 22.0779 14.8106 22.4233 14.4723 22.659C14.134 22.8946 13.7519 23.0118 13.3657 22.9985C12.9795 22.9852 12.603 22.8419 12.2754 22.5834L1.18698 13.8326L1.18701 22.3225C1.18701 22.3225 1.18701 23 0.593445 23C-0.000122011 23 -0.00012207 22.3225 -0.00012207 22.3225L-0.000121829 0.678169C-0.000121829 0.678169 -0.00012207 0.000839233 0.593445 0.000839233C1.18701 0.000839233 1.18701 0.678169 1.18701 0.678169L1.18698 9.17794Z" fill="url(#paint0_linear)"/>
<defs>
<linearGradient id="paint0_linear" x1="8" y1="5.20423e-08" x2="8" y2="23" gradientUnits="userSpaceOnUse">
<stop stop-color="#C35BD1"/>
<stop offset="1" stop-color="#657DDF"/>
</linearGradient>
</defs>
</svg>
