<svg width="22" height="22" viewBox="0 0 22 22" fill="none" xmlns="http://www.w3.org/2000/svg">
<path d="M11 22C9.55493 22.0039 8.12334 21.7212 6.78825 21.1681C5.45316 20.6151 4.24112 19.8027 3.22209 18.7781C2.19738 17.7591 1.38489 16.5469 0.831828 15.2118C0.278769 13.8767 -0.00391397 12.4452 4.13886e-05 11C-0.00393586 9.55478 0.278771 8.12309 0.831828 6.78782C1.38489 5.45256 2.19735 4.24024 3.22209 3.22105C4.24117 2.19653 5.45327 1.38429 6.78837 0.831404C8.12347 0.278517 9.555 -0.00404263 11 4.36959e-05C12.4451 -0.00385643 13.8767 0.278896 15.2118 0.831953C16.5469 1.38501 17.759 2.19737 18.778 3.22203C19.8026 4.24109 20.615 5.45329 21.168 6.78837C21.7211 8.12346 22.0039 9.55494 22 11C22.004 12.4452 21.7213 13.8767 21.1683 15.2118C20.6152 16.5469 19.8027 17.7591 18.778 18.7781C17.759 19.8027 16.5469 20.6151 15.2118 21.1681C13.8767 21.7212 12.4451 22.0039 11 22Z" fill="url(#paint0_linear)"/>
<defs>
<linearGradient id="paint0_linear" x1="11" y1="0" x2="11" y2="22.0001" gradientUnits="userSpaceOnUse">
<stop stop-color="#C35BD1"/>
<stop offset="1" stop-color="#657DDF"/>
</linearGradient>
</defs>
</svg>
