<svg width="18" height="11" viewBox="0 0 18 11" fill="none" xmlns="http://www.w3.org/2000/svg">
<path d="M17.0607 3.06066C17.6464 2.47487 17.6464 1.52513 17.0607 0.93934C16.4749 0.353553 15.5251 0.353553 14.9393 0.93934L17.0607 3.06066ZM9 9L7.93934 10.0607C8.52513 10.6464 9.47487 10.6464 10.0607 10.0607L9 9ZM3.06066 0.93934C2.47487 0.353553 1.52513 0.353553 0.93934 0.93934C0.353553 1.52513 0.353553 2.47487 0.93934 3.06066L3.06066 0.93934ZM14.9393 0.93934L7.93934 7.93934L10.0607 10.0607L17.0607 3.06066L14.9393 0.93934ZM10.0607 7.93934L3.06066 0.93934L0.93934 3.06066L7.93934 10.0607L10.0607 7.93934Z" fill="white"/>
</svg>
