<svg width="176" height="176" viewBox="0 0 176 176" fill="none" xmlns="http://www.w3.org/2000/svg">
<path d="M87.726 98.8697L110.843 121.987C112.509 123.659 114.39 125.076 116.301 126.086C118.206 127.092 120.116 127.681 121.835 127.728C123.553 127.774 125.095 127.254 126.143 126.124C127.277 125.072 127.774 123.545 127.728 121.834C127.681 120.116 127.092 118.205 126.086 116.301C125.076 114.389 123.659 112.508 121.986 110.842L98.8699 87.7258L122.06 64.5357L122.061 64.5342C123.721 62.868 125.123 60.9904 126.12 59.0861C127.113 57.1888 127.691 55.2874 127.729 53.5781C127.767 51.8779 127.264 50.3617 126.133 49.3185C125.09 48.1873 123.573 47.6854 121.873 47.7233C120.164 47.7615 118.263 48.3393 116.365 49.3322C114.461 50.3288 112.583 51.7314 110.917 53.3907L110.916 53.3922L87.726 76.5819L64.5357 53.3916L64.5342 53.3901C62.868 51.7308 60.9904 50.3282 59.0861 49.3316C57.1888 48.3387 55.2874 47.7609 53.5781 47.7228C51.8779 47.6848 50.3617 48.1872 49.3185 49.3183C48.1873 50.3616 47.6854 51.8783 47.7233 53.5783C47.7615 55.2876 48.3392 57.189 49.3322 59.0863C50.3288 60.9906 51.7314 62.8681 53.3907 64.5344L53.3922 64.5359L76.5821 87.7258L53.4649 110.843C51.7923 112.509 50.3753 114.39 49.3655 116.301C48.3594 118.206 47.7703 120.116 47.7239 121.835C47.6774 123.553 48.198 125.095 49.3275 126.143C50.3791 127.277 51.9069 127.774 53.6171 127.728C55.3357 127.681 57.2463 127.092 59.1507 126.086C61.0615 125.076 62.9425 123.66 64.6077 121.988L87.726 98.8697ZM87.726 98.8697L64.6092 121.986L87.726 98.8697ZM39.5744 160.371C53.847 169.908 70.627 174.999 87.7927 175C99.1965 175.03 110.493 172.799 121.029 168.434C131.563 164.071 141.127 157.661 149.168 149.577C157.315 141.538 163.792 131.967 168.225 121.415C172.659 110.861 174.961 99.5346 175 88.0874C175.038 76.6402 172.811 65.2985 168.448 54.7154C164.085 44.1322 157.672 34.5165 149.577 26.4221C141.483 18.3277 131.867 11.9144 121.284 7.55147C110.7 3.18853 99.3585 0.962138 87.9111 1.00049C76.4638 1.03884 65.1371 3.34117 54.5832 7.77492C44.0303 12.2083 34.4585 18.6851 26.4188 26.8324C14.2818 38.9708 6.01636 54.4353 2.66769 71.2707C-0.681207 88.1072 1.03768 105.559 7.607 121.418C14.1763 137.278 25.301 150.834 39.5744 160.371ZM45.6614 25.065C58.1952 16.6903 72.931 12.2203 88.0053 12.2201C108.215 12.2344 127.594 20.2691 141.885 34.5595C156.175 48.85 164.21 68.228 164.224 88.4378C164.224 103.512 159.754 118.247 151.379 130.781C143.004 143.315 131.101 153.084 117.173 158.852C103.246 164.621 87.9215 166.13 73.1366 163.19C58.3517 160.249 44.7709 152.99 34.1115 142.331C23.4522 131.671 16.1931 118.091 13.2522 103.306C10.3113 88.5216 11.8207 73.197 17.5895 59.2701C23.3583 45.3433 33.1274 33.4398 45.6614 25.065Z" fill="url(#paint0_linear)" stroke="url(#paint1_linear)" stroke-width="2"/>
<defs>
<linearGradient id="paint0_linear" x1="88" y1="2" x2="88" y2="174" gradientUnits="userSpaceOnUse">
<stop stop-color="#C35BD1"/>
<stop offset="1" stop-color="#657DDF"/>
</linearGradient>
<linearGradient id="paint1_linear" x1="88" y1="2" x2="88" y2="174" gradientUnits="userSpaceOnUse">
<stop stop-color="#C35BD1"/>
<stop offset="1" stop-color="#657DDF"/>
</linearGradient>
</defs>
</svg>
