<svg width="30" height="23" viewBox="0 0 30 23" fill="none" xmlns="http://www.w3.org/2000/svg">
<path d="M14.4065 13.8221L3.31808 22.5838C2.98918 22.8433 2.61117 22.9868 2.22344 22.9991C1.8357 23.0115 1.45244 22.8923 1.11358 22.6541C0.774719 22.4159 0.492666 22.0672 0.29681 21.6446C0.100954 21.2219 -0.00153732 20.7407 1.71661e-05 20.251L1.71661e-05 2.72756C0.00156021 2.23973 0.106304 1.76128 0.303415 1.34171C0.500525 0.92213 0.782843 0.576658 1.12117 0.341029C1.45949 0.1054 1.84153 -0.0118303 2.22777 0.00146458C2.61401 0.0147595 2.99043 0.158097 3.31808 0.416649L14.4065 9.16743L14.4064 2.72756C14.408 2.23973 14.5127 1.76128 14.7098 1.34171C14.9069 0.92213 15.1893 0.576658 15.5276 0.341029C15.8659 0.1054 16.2479 -0.0118303 16.6342 0.00146458C17.0204 0.0147595 17.3968 0.158097 17.7245 0.416649L28.8129 9.16743L28.8129 0.677475C28.8129 0.677475 28.8129 0 29.4064 0C30 0 30 0.677475 30 0.677475L30 22.3218C30 22.3218 30 22.9992 29.4064 22.9992C28.8129 22.9992 28.8129 22.3218 28.8129 22.3218L28.8129 13.8221L17.7245 22.5838C17.3956 22.8433 17.0176 22.9868 16.6298 22.9991C16.2421 23.0115 15.8589 22.8923 15.52 22.6541C15.1811 22.4159 14.8991 22.0672 14.7032 21.6446C14.5074 21.2219 14.4049 20.7407 14.4064 20.251L14.4065 13.8221Z" fill="url(#paint0_linear)"/>
<defs>
<linearGradient id="paint0_linear" x1="15" y1="-1.71363e-07" x2="15" y2="23" gradientUnits="userSpaceOnUse">
<stop stop-color="#C35BD1"/>
<stop offset="1" stop-color="#657DDF"/>
</linearGradient>
</defs>
</svg>
