<svg width="16" height="23" viewBox="0 0 16 23" fill="none" xmlns="http://www.w3.org/2000/svg">
<path d="M14.813 13.8221L3.72461 22.5838C3.39571 22.8433 3.0177 22.9868 2.62997 22.9991C2.24223 23.0115 1.85897 22.8923 1.52011 22.6541C1.18125 22.4159 0.899204 22.0672 0.703348 21.6446C0.507492 21.2219 0.405001 20.7407 0.406555 20.251L0.406555 2.72756C0.408098 2.23973 0.512841 1.76128 0.709951 1.34171C0.907062 0.92213 1.18938 0.576658 1.5277 0.341029C1.86603 0.1054 2.24806 -0.0118303 2.6343 0.00146458C3.02055 0.0147595 3.39696 0.158097 3.72461 0.416649L14.813 9.16743L14.813 0.677475C14.813 0.677475 14.813 0 15.4066 0C16.0001 0 16.0001 0.677475 16.0001 0.677475L16.0001 22.3218C16.0001 22.3218 16.0001 22.9992 15.4066 22.9992C14.813 22.9992 14.813 22.3218 14.813 22.3218L14.813 13.8221Z" fill="url(#paint0_linear)"/>
<defs>
<linearGradient id="paint0_linear" x1="8" y1="7.71158e-08" x2="8" y2="23" gradientUnits="userSpaceOnUse">
<stop stop-color="#C35BD1"/>
<stop offset="1" stop-color="#657DDF"/>
</linearGradient>
</defs>
</svg>
