<svg width="240" height="234" viewBox="0 0 240 234" fill="none" xmlns="http://www.w3.org/2000/svg">
<path d="M206.315 0.892829L102.503 31.859C89.9263 35.3574 79.732 48.1483 79.732 60.4109V165.7C79.732 165.7 79.732 167.139 79.732 167.175C79.732 167.175 72.2101 162.228 55.4564 164.543C30.8537 167.95 10.9043 186.362 10.9043 205.676C10.9043 224.99 30.8537 236.824 55.4564 233.417C80.0777 230.028 98.121 212.181 98.121 192.858C98.121 192.858 98.121 110.263 98.121 101.699C98.121 93.1354 108.68 89.4639 108.68 89.4639L200.466 61.4131C200.466 61.4131 210.622 58.0878 210.622 67.2528C210.622 76.4178 210.622 140.418 210.622 140.418C210.622 140.418 210.622 140.436 210.622 140.473C210.622 140.473 201.269 135.225 184.515 137.211C159.913 140.118 139.963 158.147 139.963 177.452C139.963 196.775 159.913 209.001 184.515 206.086C209.137 203.18 229.086 185.159 229.086 165.836V16.7631C229.086 4.50054 218.882 -2.60556 206.315 0.892829Z" fill="url(#paint0_linear)"/>
<defs>
<linearGradient id="paint0_linear" x1="119.995" y1="0.00109863" x2="119.995" y2="234" gradientUnits="userSpaceOnUse">
<stop stop-color="#C35BD1"/>
<stop offset="1" stop-color="#657DDF"/>
</linearGradient>
</defs>
</svg>
