<svg width="31" height="34" viewBox="0 0 31 34" fill="none" xmlns="http://www.w3.org/2000/svg">
<path d="M4.49793 33.9983C3.71356 34.0166 2.93823 33.8405 2.25273 33.4883C1.56722 33.1361 0.996647 32.6208 0.600438 31.9959C0.204228 31.3711 -0.00310903 30.6597 3.52369e-05 29.9359V4.03144C0.00315607 3.3103 0.215049 2.60301 0.613796 1.98276C1.01254 1.36251 1.58366 0.851801 2.26808 0.503475C2.9525 0.155149 3.72535 -0.0181498 4.50671 0.00150376H8.8428C9.62415 -0.0181498 10.397 0.155149 11.0814 0.503475C11.7658 0.851801 12.337 1.36251 12.7357 1.98276C13.1345 2.60301 13.3464 3.3103 13.3495 4.03144V29.9359C13.3526 30.6597 13.1453 31.3711 12.7491 31.9959C12.3529 32.6208 11.7823 33.1361 11.0968 33.4883C10.4113 33.8405 9.63595 34.0166 8.85157 33.9983L4.49793 33.9983Z" fill="url(#paint0_linear)"/>
<path d="M21.4979 33.9983C20.7136 34.0166 19.9382 33.8405 19.2527 33.4883C18.5672 33.1361 17.9966 32.6208 17.6004 31.9959C17.2042 31.3711 16.9969 30.6597 17 29.9359V4.03144C17.0032 3.3103 17.215 2.60301 17.6138 1.98276C18.0125 1.36251 18.5837 0.851801 19.2681 0.503475C19.9525 0.155149 20.7254 -0.0181498 21.5067 0.00150376H25.8428C26.6242 -0.0181498 27.397 0.155149 28.0814 0.503475C28.7658 0.851801 29.337 1.36251 29.7357 1.98276C30.1345 2.60301 30.3464 3.3103 30.3495 4.03144V29.9359C30.3526 30.6597 30.1453 31.3711 29.7491 31.9959C29.3529 32.6208 28.7823 33.1361 28.0968 33.4883C27.4113 33.8405 26.6359 34.0166 25.8516 33.9983L21.4979 33.9983Z" fill="url(#paint1_linear)"/>
<defs>
<linearGradient id="paint0_linear" x1="6.67475" y1="0" x2="6.67475" y2="33.9996" gradientUnits="userSpaceOnUse">
<stop stop-color="#C35BD1"/>
<stop offset="1" stop-color="#657DDF"/>
</linearGradient>
<linearGradient id="paint1_linear" x1="23.6748" y1="0" x2="23.6748" y2="33.9996" gradientUnits="userSpaceOnUse">
<stop stop-color="#C35BD1"/>
<stop offset="1" stop-color="#657DDF"/>
</linearGradient>
</defs>
</svg>
