<svg width="30" height="34" viewBox="0 0 30 34" fill="none" xmlns="http://www.w3.org/2000/svg">
<path d="M28.005 13.5514C28.6151 13.9144 29.1185 14.421 29.4677 15.023C29.8168 15.6251 30 16.3028 30 16.9919C30 17.681 29.8168 18.3587 29.4677 18.9608C29.1185 19.5628 28.6151 20.0694 28.005 20.4324L6.45008 33.3847C5.81073 33.7684 5.0759 33.9804 4.32218 33.9987C3.56846 34.017 2.82342 33.8409 2.16471 33.4887C1.50599 33.1365 0.957703 32.6211 0.576975 31.9963C0.196247 31.3715 -0.00298691 30.6601 3.43323e-05 29.9362L3.43323e-05 4.03145C0.00303268 3.31031 0.206646 2.60302 0.589811 1.98277C0.972977 1.36251 1.52178 0.851806 2.17946 0.503478C2.83713 0.15515 3.57979 -0.0181499 4.33061 0.00150377C5.08143 0.0211574 5.81315 0.233051 6.45008 0.615267L28.005 13.5514Z" fill="url(#paint0_linear)"/>
<defs>
<linearGradient id="paint0_linear" x1="15" y1="-6.33299e-08" x2="15" y2="34" gradientUnits="userSpaceOnUse">
<stop stop-color="#C35BD1"/>
<stop offset="1" stop-color="#657DDF"/>
</linearGradient>
</defs>
</svg>
