<svg width="51" height="26" viewBox="0 0 51 26" fill="none" xmlns="http://www.w3.org/2000/svg">
<path d="M7.47064 21.3816C6.28184 21.3816 5.14172 20.7049 4.30111 19.5005C3.4605 18.296 2.98826 16.6624 2.98826 14.959C2.98826 13.2556 3.4605 11.622 4.30111 10.4175C5.14172 9.21306 6.28184 8.5364 7.47064 8.5364H13.5412C13.7441 8.55253 13.9472 8.50918 14.1379 8.40904C14.3287 8.30891 14.5033 8.15409 14.6509 7.95401C14.7985 7.75394 14.916 7.51288 14.9964 7.24548C15.0767 6.97808 15.1182 6.68998 15.1182 6.39884C15.1182 6.10771 15.0767 5.81961 14.9964 5.55221C14.916 5.28481 14.7985 5.04375 14.6509 4.84368C14.5033 4.6436 14.3287 4.48868 14.1379 4.38855C13.9472 4.28841 13.7441 4.24516 13.5412 4.26129H7.47064C5.4893 4.26129 3.58912 5.38907 2.1881 7.39652C0.787083 9.40396 0 12.1266 0 14.9655C0 17.8045 0.787083 20.5272 2.1881 22.5346C3.58912 24.5421 5.4893 25.6698 7.47064 25.6698L43.4962 25.6698C45.4775 25.6698 47.3777 24.542 48.7787 22.5346C50.1798 20.5271 50.9668 17.8044 50.9668 14.9655C50.9668 12.1265 50.1798 9.40383 48.7787 7.39638C47.3777 5.38893 45.4775 4.26116 43.4962 4.26116V4.28414H23.0971L23.5355 3.65609C23.8158 3.25445 23.9733 2.70967 23.9733 2.14167C23.9733 1.57366 23.8158 1.02889 23.5355 0.627246C23.2552 0.225605 22.875 4.39799e-08 22.4786 0C22.0822 -4.39799e-08 21.702 0.225605 21.4217 0.627246L18.438 4.90245C18.2991 5.10127 18.189 5.33729 18.1139 5.59714C18.0387 5.85698 18 6.13549 18 6.41677C18 6.69805 18.0387 6.97666 18.1139 7.23651C18.189 7.49635 18.2991 7.73238 18.438 7.93119L21.4217 12.2064C21.702 12.608 22.0822 12.8336 22.4786 12.8336C22.875 12.8336 23.2552 12.608 23.5355 12.2064C23.8158 11.8048 23.9733 11.26 23.9733 10.692C23.9733 10.124 23.8158 9.5792 23.5355 9.17756L23.0971 8.54941H43.4962C44.685 8.54941 45.8251 9.22607 46.6657 10.4305C47.5063 11.635 47.9786 13.2686 47.9786 14.972C47.9786 16.6754 47.5063 18.309 46.6657 19.5135C45.8251 20.7179 44.685 21.3946 43.4962 21.3946L7.47064 21.3816Z" fill="url(#paint0_linear)"/>
<defs>
<linearGradient id="paint0_linear" x1="25.4834" y1="0" x2="25.4834" y2="25.6698" gradientUnits="userSpaceOnUse">
<stop stop-color="#C35BD1"/>
<stop offset="1" stop-color="#657DDF"/>
</linearGradient>
</defs>
</svg>
