<svg width="51" height="30" viewBox="0 0 51 30" fill="none" xmlns="http://www.w3.org/2000/svg">
<path d="M44.6235 24.0023H38.8299C36.8098 24.0034 34.8653 23.2798 33.3923 21.979L25.4414 14.9966L33.3971 8.01649C34.8698 6.7153 36.8145 5.9917 38.8347 5.99326H44.6259V8.99213L51 4.49607L44.6259 0V2.99887H38.8323C36.0057 2.99462 33.2837 4.00436 31.2206 5.82241L12.8246 21.9768C11.3525 23.2759 9.41008 23.9993 7.3918 24H0.00231934V26.9944H7.39657C10.2214 26.9968 12.9412 25.9873 15.0035 24.1708L23.1001 17.0558L31.2087 24.1776C33.2722 25.9951 35.9939 27.0047 38.8204 27.0011H44.6139V30L50.988 25.5039L44.6139 21.0079V24.0067L44.6235 24.0023Z" fill="url(#paint0_linear)"/>
<path d="M7.4062 6.00888C9.42316 6.00916 11.3642 6.73265 12.8342 8.0321L18.4462 12.9621L20.7828 10.9118L15.0107 5.84252C12.9512 4.02239 10.2317 3.00946 7.4062 3.01001H0V6.00439H7.4062V6.00888Z" fill="url(#paint1_linear)"/>
<defs>
<linearGradient id="paint0_linear" x1="25.5012" y1="0" x2="25.5012" y2="30" gradientUnits="userSpaceOnUse">
<stop stop-color="#C35BD1"/>
<stop offset="1" stop-color="#657DDF"/>
</linearGradient>
<linearGradient id="paint1_linear" x1="10.3914" y1="3.01001" x2="10.3914" y2="12.9621" gradientUnits="userSpaceOnUse">
<stop stop-color="#C35BD1"/>
<stop offset="1" stop-color="#657DDF"/>
</linearGradient>
</defs>
</svg>
