<svg width="30" height="23" viewBox="0 0 30 23" fill="none" xmlns="http://www.w3.org/2000/svg">
<path d="M15.5935 9.17794L26.6819 0.416204C27.0108 0.156666 27.3888 0.0132389 27.7766 0.000873566C28.1643 -0.0114937 28.5476 0.107651 28.8864 0.345892C29.2253 0.584131 29.5073 0.932751 29.7032 1.35542C29.899 1.77808 30.0015 2.25935 30 2.74903L30 20.2724C29.9984 20.7603 29.8937 21.2387 29.6966 21.6583C29.4995 22.0779 29.2172 22.4233 28.8788 22.659C28.5405 22.8946 28.1585 23.0118 27.7722 22.9985C27.386 22.9852 27.0096 22.8419 26.6819 22.5834L15.5935 13.8326L15.5936 20.2724C15.592 20.7603 15.4873 21.2387 15.2902 21.6583C15.0931 22.0779 14.8107 22.4233 14.4724 22.659C14.1341 22.8946 13.7521 23.0118 13.3658 22.9985C12.9796 22.9852 12.6032 22.8419 12.2755 22.5834L1.1871 13.8326L1.18713 22.3225C1.18713 22.3225 1.18713 23 0.593567 23C7.07587e-08 23 0 22.3225 0 22.3225L2.41246e-07 0.678169C2.41246e-07 0.678169 0 0.000839233 0.593567 0.000839233C1.18713 0.000839233 1.18713 0.678169 1.18713 0.678169L1.1871 9.17794L12.2755 0.416204C12.6044 0.156666 12.9824 0.0132389 13.3702 0.000873566C13.7579 -0.0114937 14.1411 0.107651 14.48 0.345892C14.8189 0.584131 15.1009 0.932751 15.2968 1.35542C15.4926 1.77808 15.5951 2.25935 15.5936 2.74903L15.5935 9.17794Z" fill="url(#paint0_linear)"/>
<defs>
<linearGradient id="paint0_linear" x1="15" y1="4.72626e-07" x2="15" y2="23" gradientUnits="userSpaceOnUse">
<stop stop-color="#C35BD1"/>
<stop offset="1" stop-color="#657DDF"/>
</linearGradient>
</defs>
</svg>
