<svg width="30" height="34" viewBox="0 0 30 34" fill="none" xmlns="http://www.w3.org/2000/svg">
<path d="M4.38017 33.9994C3.61634 34.0176 2.8613 33.8415 2.19375 33.4893C1.52619 33.1371 0.970553 32.6218 0.584717 31.9969C0.198881 31.3721 -0.00302764 30.6607 3.43144e-05 29.9368V4.03214C0.00307344 3.31099 0.209419 2.6037 0.597726 1.98344C0.986033 1.36318 1.5422 0.852468 2.2087 0.504138C2.8752 0.155809 3.62782 -0.0174919 4.38871 0.00216181L25.5 0.00186999C26.2609 -0.0177838 27.0135 0.155517 27.68 0.503846C28.3465 0.852176 28.9027 1.36289 29.291 1.98315C29.6793 2.60341 29.8856 3.3107 29.8887 4.03185V29.9365C29.8917 30.6604 29.6898 31.3718 29.304 31.9967C28.9182 32.6215 28.3625 33.1368 27.695 33.489C27.0274 33.8412 26.2724 34.0174 25.5085 33.9991L4.38017 33.9994Z" fill="url(#paint0_linear)"/>
<defs>
<linearGradient id="paint0_linear" x1="15" y1="-8.6846e-08" x2="15" y2="34" gradientUnits="userSpaceOnUse">
<stop stop-color="#C35BD1"/>
<stop offset="1" stop-color="#657DDF"/>
</linearGradient>
</defs>
</svg>
