<svg width="18" height="11" viewBox="0 0 18 11" fill="none" xmlns="http://www.w3.org/2000/svg">
<path d="M0.93934 7.93934C0.353553 8.52513 0.353553 9.47487 0.93934 10.0607C1.52513 10.6464 2.47487 10.6464 3.06066 10.0607L0.93934 7.93934ZM9 2L10.0607 0.93934C9.47487 0.353553 8.52513 0.353553 7.93934 0.93934L9 2ZM14.9393 10.0607C15.5251 10.6464 16.4749 10.6464 17.0607 10.0607C17.6464 9.47487 17.6464 8.52513 17.0607 7.93934L14.9393 10.0607ZM3.06066 10.0607L10.0607 3.06066L7.93934 0.93934L0.93934 7.93934L3.06066 10.0607ZM7.93934 3.06066L14.9393 10.0607L17.0607 7.93934L10.0607 0.93934L7.93934 3.06066Z" fill="white"/>
</svg>
