<svg width="16" height="28" viewBox="0 0 16 28" fill="none" xmlns="http://www.w3.org/2000/svg">
<path d="M15.1881 0.629837C15.0035 0.480719 14.794 0.402222 14.5808 0.402222C14.3676 0.402222 14.1581 0.480719 13.9734 0.629837L5.75195 7.19886H1.21468C0.89386 7.19885 0.586067 7.37637 0.358491 7.69266C0.130916 8.00895 0.00204083 8.43832 0 8.88704L0 19.0854C0 19.536 0.127975 19.9681 0.355771 20.2867C0.583567 20.6053 0.892525 20.7843 1.21468 20.7843H5.75195L13.9781 27.3577C14.1627 27.5053 14.3719 27.5825 14.5846 27.5816C14.7973 27.5806 15.0061 27.5016 15.1901 27.3523C15.3742 27.2031 15.5269 26.9888 15.6331 26.7311C15.7394 26.4733 15.7953 26.181 15.7954 25.8835V2.09971C15.7953 1.80173 15.739 1.50906 15.6324 1.25107C15.5258 0.993079 15.3726 0.778828 15.1881 0.629837Z" fill="url(#paint0_linear)"/>
<defs>
<linearGradient id="paint0_linear" x1="7.89772" y1="0.402222" x2="7.89772" y2="27.5816" gradientUnits="userSpaceOnUse">
<stop stop-color="#C35BD1"/>
<stop offset="1" stop-color="#657DDF"/>
</linearGradient>
</defs>
</svg>
