<svg width="34" height="34" viewBox="0 0 34 34" fill="none" xmlns="http://www.w3.org/2000/svg">
<path d="M15.1881 3.62984C15.0035 3.48072 14.794 3.40222 14.5808 3.40222C14.3676 3.40222 14.1581 3.48072 13.9734 3.62984L5.75195 10.1989H1.21468C0.89386 10.1989 0.586067 10.3764 0.358491 10.6927C0.130916 11.009 0.00204083 11.4383 0 11.887L0 22.0854C0 22.536 0.127975 22.9681 0.355771 23.2867C0.583567 23.6053 0.892525 23.7843 1.21468 23.7843H5.75195L13.9781 30.3577C14.1627 30.5053 14.3719 30.5825 14.5846 30.5816C14.7973 30.5806 15.0061 30.5016 15.1901 30.3523C15.3742 30.2031 15.5269 29.9888 15.6331 29.7311C15.7394 29.4733 15.7953 29.181 15.7954 28.8835V5.09971C15.7953 4.80173 15.739 4.50906 15.6324 4.25107C15.5258 3.99308 15.3726 3.77883 15.1881 3.62984Z" fill="url(#paint0_linear)"/>
<path d="M20.3885 10.8301C20.1864 10.479 19.8929 10.2545 19.5725 10.206C19.2521 10.1576 18.9311 10.2891 18.68 10.5718C18.429 10.8544 18.2685 11.2649 18.2339 11.7131C18.1992 12.1612 18.2933 12.6102 18.4953 12.9614C19.1079 14.1317 19.4381 15.5445 19.4381 16.9949C19.4381 18.4453 19.1079 19.858 18.4953 21.0284C18.2918 21.3781 18.196 21.8265 18.2289 22.2751C18.2618 22.7236 18.4207 23.1355 18.6707 23.4202C18.9208 23.7048 19.2414 23.8388 19.562 23.7928C19.8827 23.7468 20.1772 23.5245 20.3807 23.1748L20.3885 23.1597C21.355 21.3889 21.8785 19.2227 21.8785 16.9949C21.8785 14.767 21.355 12.6009 20.3885 10.8301Z" fill="url(#paint1_linear)"/>
<path d="M25.2502 5.73097C25.0481 5.37983 24.7546 5.15534 24.4342 5.10689C24.1138 5.05845 23.7928 5.19003 23.5417 5.47266C23.2907 5.75529 23.1302 6.16583 23.0955 6.61397C23.0609 7.06211 23.155 7.51114 23.357 7.86228C24.7663 10.4987 25.5277 13.7021 25.5277 16.9938C25.5277 20.2856 24.7663 23.489 23.357 26.1254C23.1535 26.4751 23.0577 26.9236 23.0906 27.3721C23.1235 27.8207 23.2824 28.2325 23.5324 28.5172C23.7824 28.8018 24.1031 28.9359 24.4237 28.8898C24.7444 28.8438 25.0389 28.6216 25.2424 28.2718L25.2502 28.2567C26.9887 25.0052 27.9281 21.054 27.9281 16.9938C27.9281 12.9336 26.9887 8.98246 25.2502 5.73097Z" fill="url(#paint2_linear)"/>
<path d="M30.1105 0.633919C29.9084 0.282782 29.6149 0.0582904 29.2945 0.00984831C28.9741 -0.0385938 28.6531 0.0929838 28.4021 0.375613C28.151 0.658242 27.9905 1.06878 27.9559 1.51692C27.9212 1.96506 28.0153 2.41409 28.2174 2.76523C30.4136 6.87372 31.6005 11.866 31.6005 16.9959C31.6005 22.1259 30.4136 27.1182 28.2174 31.2267C28.1166 31.3998 28.0413 31.599 27.9955 31.8129C27.9498 32.0269 27.9346 32.2513 27.9509 32.4733C27.9672 32.6954 28.0146 32.9109 28.0904 33.1074C28.1662 33.3038 28.269 33.4775 28.3928 33.6184C28.5166 33.7594 28.659 33.8648 28.8119 33.9288C28.9649 33.9927 29.1253 34.0139 29.2841 33.9911C29.4429 33.9683 29.5969 33.902 29.7374 33.796C29.8778 33.69 30.002 33.5462 30.1028 33.3731L30.1105 33.358C32.6356 28.6341 34.0001 22.8942 34.0001 16.9959C34.0001 11.0977 32.6356 5.35779 30.1105 0.633919Z" fill="url(#paint3_linear)"/>
<defs>
<linearGradient id="paint0_linear" x1="7.89772" y1="3.40222" x2="7.89772" y2="30.5816" gradientUnits="userSpaceOnUse">
<stop stop-color="#C35BD1"/>
<stop offset="1" stop-color="#657DDF"/>
</linearGradient>
<linearGradient id="paint1_linear" x1="20.0505" y1="10.1962" x2="20.0505" y2="23.8017" gradientUnits="userSpaceOnUse">
<stop stop-color="#C35BD1"/>
<stop offset="1" stop-color="#657DDF"/>
</linearGradient>
<linearGradient id="paint2_linear" x1="25.5062" y1="5.09705" x2="25.5062" y2="28.8987" gradientUnits="userSpaceOnUse">
<stop stop-color="#C35BD1"/>
<stop offset="1" stop-color="#657DDF"/>
</linearGradient>
<linearGradient id="paint3_linear" x1="30.9723" y1="0" x2="30.9723" y2="34" gradientUnits="userSpaceOnUse">
<stop stop-color="#C35BD1"/>
<stop offset="1" stop-color="#657DDF"/>
</linearGradient>
</defs>
</svg>
